<?xml version="1.0" encoding="utf-8"?>
<!-- Generator: Adobe Illustrator 28.2.0, SVG Export Plug-In . SVG Version: 6.00 Build 0)  -->
<svg version="1.1" id="Layer_1" xmlns="http://www.w3.org/2000/svg" xmlns:xlink="http://www.w3.org/1999/xlink" x="0px" y="0px"
	 viewBox="0 0 500.85 843.51" style="enable-background:new 0 0 500.85 843.51;" xml:space="preserve">
<style type="text/css">
	.st0{fill:#292931;}
</style>
<g>
	<path class="st0" d="M331.77,715.97H167.82c-9.25,0-16.75-7.5-16.75-16.75l0,0c0-9.25,7.5-16.75,16.75-16.75h163.96
		c9.25,0,16.75,7.5,16.75,16.75l0,0C348.52,708.47,341.02,715.97,331.77,715.97z"/>
	<path class="st0" d="M331.77,768.58H167.82c-9.25,0-16.75-7.5-16.75-16.75l0,0c0-9.25,7.5-16.75,16.75-16.75h163.96
		c9.25,0,16.75,7.5,16.75,16.75l0,0C348.52,761.08,341.02,768.58,331.77,768.58z"/>
	<path class="st0" d="M210.01,788.4c-4.06,0-7.14,3.69-6.39,7.68c4.04,21.58,22.95,37.92,45.7,37.92c22.75,0,41.66-16.34,45.7-37.92
		c0.75-3.99-2.33-7.68-6.39-7.68H210.01z"/>
	<g>
		<path class="st0" d="M314.42,661.36H182.78c-22.81,0-42.01-17.83-43.72-40.58c-5.58-74.22-35.86-121.25-67.93-171.04
			C36.16,395.44,0,339.29,0,248.5C0,125.91,87.69,22.73,208.52,3.18c28.25-4.57,58.02-4.21,86.1,1.03
			C412.01,26.16,497.21,128.9,497.21,248.5c0,90.79-36.16,146.94-71.14,201.23c-32.07,49.79-62.36,96.82-67.93,171.04
			C356.43,643.53,337.22,661.36,314.42,661.36z M248.56,32.35c-11.73,0-23.44,0.92-34.87,2.77
			C108.62,52.12,32.35,141.86,32.35,248.5c0,81.27,32.05,131.03,65.98,183.72c32.84,50.99,66.8,103.72,72.99,186.14
			c0.45,5.97,5.48,10.65,11.45,10.65h131.65c6.07,0,11-4.58,11.45-10.65c6.19-82.41,40.16-135.14,73-186.14
			c33.93-52.68,65.98-102.44,65.98-183.72c0-104.03-74.09-193.39-176.18-212.48C275.58,33.57,262.07,32.35,248.56,32.35z"/>
	</g>
	<g>
		<path class="st0" d="M128.14,404.25c-5,0-9.92-2.31-13.09-6.65C25.24,274.23,91.45,158.44,94.31,153.58
			c4.53-7.7,14.44-10.27,22.15-5.75c7.69,4.52,10.27,14.42,5.77,22.11c-2.48,4.27-57.99,102.87,18.99,208.61
			c5.26,7.22,3.67,17.34-3.55,22.6C134.78,403.24,131.45,404.25,128.14,404.25z"/>
	</g>
</g>
</svg>
