<?xml version="1.0" encoding="utf-8"?>
<!-- Generator: Adobe Illustrator 28.2.0, SVG Export Plug-In . SVG Version: 6.00 Build 0)  -->
<svg version="1.1" id="Calque_1" xmlns="http://www.w3.org/2000/svg" xmlns:xlink="http://www.w3.org/1999/xlink" x="0px" y="0px"
	 viewBox="0 0 62 87.54" style="enable-background:new 0 0 62 87.54;" xml:space="preserve">
<style type="text/css">
	.st0{fill:#F9DC12;}
</style>
<g>
	<path class="st0" d="M61.54,25.06c-0.35-4.91-2.14-9.65-5.09-13.59c-2.96-3.96-7.03-7.04-11.6-8.92C44.29,2.31,43.7,2.1,43.11,1.9
		C39.19,0.55,34.98-0.03,30.84,0c-0.27,0-0.53,0.01-0.8,0.01C29.98,0,29.91-0.01,29.76,0.03C26.21,0.16,22.69,0.8,19.34,2
		c-0.5,0.18-1,0.37-1.48,0.58c-0.1,0-0.25,0.05-0.67,0.29c-2.75,1.24-5.31,2.89-7.55,4.91c-2.68,2.41-4.92,5.3-6.59,8.5
		c-1.64,3.15-2.73,6.6-2.99,10.15C0.03,26.87,0.01,27.32,0,27.76c0,0.16,0.34,0.19,0.43,0.19c1.61,0,3.23,0,4.84,0
		c2.57,0,5.14,0,7.7,0c0.59,0,1.17,0,1.76,0c0.32,0,1-0.15,1-0.57c-0.01-1.38,0.45-2.81,0.99-4.07c0.53-1.25,1.25-2.42,2.1-3.47
		c1.48-1.83,3.38-3.27,5.54-4.16c0.12,0.02,0.31-0.01,1.04-0.38c0.08-0.03,0.16-0.05,0.24-0.07c3.03-0.91,6.35-0.94,9.46-0.42
		c2.96,0.49,5.84,1.69,8.04,3.76c1.99,1.87,3.33,4.38,3.76,7.08c0.25,1.57,0.22,3.2-0.16,4.75c-0.32,1.34-1,2.54-1.87,3.6
		c-1.87,2.28-4.48,3.91-6.93,5.49c-2.75,1.78-5.54,3.53-8.04,5.67c-2.37,2.02-4.46,4.39-5.84,7.19c-1.46,2.96-2.06,6.22-2.21,9.5
		c-0.04,0.86-0.05,1.72-0.05,2.58c0,0.16,0.33,0.19,0.43,0.19c1.38,0,2.76,0,4.15,0c2.21,0,4.41,0,6.62,0c0.51,0,1.02,0,1.53,0
		c0.33,0,0.99-0.15,1-0.57c0.03-1.52,0.08-3.07,0.45-4.55c0.17-0.7,0.42-1.4,0.81-2.02c0.39-0.61,0.87-1.16,1.39-1.66
		c2.35-2.23,5.26-3.84,7.99-5.55c2.47-1.54,4.93-3.16,7.11-5.1c1.85-1.65,3.52-3.53,4.85-5.64C60.84,35.2,61.91,30.13,61.54,25.06z
		 M59.16,34.37c-0.69,0.28-2.17,1.05-5.64,3.1c-3.35,1.98-7.79,4.69-12.08,7.31c-4.18,2.55-8.5,5.2-11.82,7.16
		c-2.02,1.19-3.37,1.96-4.28,2.45c0.9-0.67,2.31-1.67,4.51-3.17c3.46-2.35,8.05-5.38,12.49-8.31c4.65-3.07,9.47-6.24,12.98-8.65
		c1.9-1.3,3.28-2.27,4.22-2.98c0.13-0.1,0.26-0.2,0.38-0.29C59.75,32.13,59.5,33.26,59.16,34.37z M50.89,44.81
		c-3.03,2.11-7.05,4.83-10.94,7.46c-4.09,2.76-8.31,5.61-11.4,7.77c-1.66,1.17-2.88,2.04-3.7,2.68c-0.46,0.36-0.79,0.63-1.02,0.84
		c-0.08,0.08-0.19,0.18-0.27,0.29c-0.11,0-0.21,0-0.32,0c0-1.05,0.03-2.11,0.1-3.16c0.69-0.3,2.1-1.05,5.15-2.85
		c3.13-1.85,7.28-4.38,11.28-6.83c3.9-2.38,7.93-4.84,11.02-6.67c1.74-1.03,2.95-1.72,3.8-2.18C53.8,42.75,52.62,43.6,50.89,44.81z
		 M23.49,59.12c0.14-1.12,0.34-2.22,0.63-3.31c0.7-0.28,2.18-1.06,5.63-3.09c3.36-1.98,7.79-4.69,12.08-7.31
		c4.18-2.55,8.5-5.2,11.81-7.15c2.02-1.19,3.37-1.96,4.28-2.45c-0.89,0.67-2.3,1.66-4.49,3.16C50,41.3,45.42,44.32,41,47.24
		c-4.63,3.06-9.42,6.22-12.92,8.61c-1.89,1.29-3.26,2.26-4.2,2.97C23.74,58.93,23.61,59.03,23.49,59.12z M54.87,32.28
		c-3.17,1.87-7.36,4.43-11.41,6.9c-3.94,2.41-8.02,4.9-11.15,6.75c-1.78,1.05-3.01,1.75-3.87,2.22c0.83-0.62,2.08-1.52,3.96-2.82
		c3.18-2.19,7.39-5.02,11.47-7.75c4.28-2.87,8.71-5.83,11.94-8.07c1.74-1.21,3.01-2.12,3.88-2.79c0.17-0.13,0.32-0.25,0.46-0.36
		c0.04,1.01,0.02,2.02-0.07,3.03C59.4,29.7,57.98,30.45,54.87,32.28z M56.42,13.94c-0.76,0.41-2.19,1.27-5.09,3.04
		c-1.36,0.83-2.91,1.78-4.05,2.45c0.93-0.96,2.25-2.29,3.4-3.44c1.17-1.17,2.37-2.38,3.25-3.29c0.41-0.42,0.72-0.75,0.95-1
		C55.43,12.41,55.95,13.16,56.42,13.94z M56.04,15.9c0.4-0.4,0.72-0.73,0.96-0.98c0.43,0.79,0.83,1.6,1.18,2.42
		c-0.75,0.4-2.21,1.27-5.2,3.1c-1.36,0.83-2.9,1.77-4.05,2.45c0.99-1,2.41-2.38,3.64-3.58C53.81,18.1,55.1,16.85,56.04,15.9z
		 M58.6,18.44c0.32,0.85,0.59,1.72,0.81,2.61c-0.77,0.41-2.32,1.33-5.63,3.35c-1.45,0.88-3.09,1.89-4.31,2.61
		c1.12-1.08,2.74-2.58,4.16-3.88c1.41-1.3,2.86-2.64,3.92-3.66C57.99,19.05,58.33,18.71,58.6,18.44z M53.36,21.08
		c1.3-0.79,2.77-1.69,3.9-2.36c-1.12,1.08-2.73,2.56-4.13,3.86c-1.41,1.3-2.86,2.64-3.92,3.66c-0.27,0.26-0.51,0.49-0.71,0.69
		c-0.01-0.27-0.02-0.53-0.05-0.79c-0.06-0.65-0.17-1.3-0.32-1.93C48.85,23.81,50.31,22.94,53.36,21.08z M47.95,30.94
		c0.28-0.81,0.44-1.66,0.5-2.52c0.74-0.38,2.28-1.3,5.71-3.4c1.31-0.8,2.78-1.7,3.95-2.4c-1.47,1.28-3.62,3.08-5.5,4.65
		c-1.71,1.43-3.47,2.9-4.82,4.06C47.85,31.21,47.9,31.08,47.95,30.94z M53.1,27.85c1.83-1.53,3.73-3.12,5.11-4.31
		c0.63-0.54,1.11-0.97,1.47-1.3c0.11,0.53,0.2,1.06,0.27,1.59c0.06,0.41,0.1,0.82,0.14,1.23c-0.4,0.2-1.01,0.55-2.01,1.13
		c-1.42,0.84-3.29,1.98-5.1,3.09c-1.85,1.13-3.98,2.43-5.5,3.32C48.95,31.31,51.17,29.46,53.1,27.85z M54.1,10.72
		c0.03,0.03,0.05,0.06,0.08,0.09c-0.79,0.43-2.28,1.32-5.25,3.14c-1.44,0.88-3.09,1.89-4.27,2.58c0.92-0.96,2.23-2.28,3.37-3.43
		c1.15-1.16,2.35-2.36,3.22-3.27c0.44-0.46,0.77-0.81,1.01-1.08C52.89,9.38,53.51,10.03,54.1,10.72z M43.23,16.98
		c-0.86-0.63-1.79-1.16-2.76-1.59c0.89-0.49,2.51-1.46,5.59-3.34c1.65-1.01,3.54-2.17,4.84-2.92c-0.92,0.96-2.24,2.29-3.4,3.45
		c-1.15,1.16-2.35,2.36-3.22,3.27C43.81,16.34,43.46,16.71,43.23,16.98C43.23,16.97,43.23,16.98,43.23,16.98z M16.84,20.72
		c-0.63,0.3-2.01,1.13-5.43,3.21c-0.65,0.4-1.35,0.82-2.02,1.23c0.72-0.51,1.61-1.13,2.69-1.86c1.7-1.16,3.69-2.5,5.79-3.9
		C17.5,19.83,17.16,20.26,16.84,20.72z M25,14.67c4.31-2.85,8.69-5.76,11.94-7.99c1.85-1.27,3.2-2.23,4.12-2.92
		c0.51-0.39,0.88-0.69,1.13-0.92c0.05-0.05,0.1-0.1,0.16-0.15c0.57,0.2,1.13,0.42,1.69,0.66c-0.53,0.28-1.32,0.73-2.5,1.42
		c-1.93,1.14-4.47,2.69-6.93,4.2C30.99,11.17,26.63,13.83,25,14.67z M45.03,4.09c0.07-0.07,0.13-0.14,0.19-0.2
		c0.98,0.47,1.93,1,2.85,1.59c-0.39,0.21-0.93,0.52-1.69,0.97c-1.41,0.83-3.27,1.97-5.07,3.07c-1.97,1.2-4.25,2.6-5.77,3.48
		c1.13-1.09,2.8-2.63,4.26-3.97c1.41-1.3,2.88-2.65,3.95-3.67C44.32,4.8,44.74,4.39,45.03,4.09z M49,6.19
		c0.02-0.02,0.03-0.04,0.05-0.05c0.82,0.57,1.6,1.19,2.35,1.85c-0.85,0.46-2.48,1.43-5.74,3.43c-1.62,0.99-3.48,2.13-4.78,2.88
		c0.97-0.99,2.38-2.37,3.6-3.57c1.22-1.2,2.48-2.44,3.4-3.37C48.39,6.84,48.76,6.47,49,6.19z M40.89,2.21
		c-0.98,0.48-2.68,1.42-5.75,3.22c-3.84,2.26-8.9,5.36-13.81,8.36c-4.79,2.93-9.75,5.96-13.54,8.2C5.17,23.54,3.52,24.46,2.5,25
		c0.86-0.65,2.25-1.64,4.46-3.16c3.34-2.29,7.78-5.23,12.07-8.08c4.5-2.98,9.15-6.07,12.55-8.41c1.83-1.26,3.17-2.21,4.08-2.9
		c0.51-0.39,0.87-0.68,1.12-0.91c0.08-0.07,0.17-0.16,0.25-0.25c1.17,0.2,2.32,0.47,3.45,0.79C40.61,2.13,40.75,2.17,40.89,2.21z
		 M2.36,21.35c0.68-0.28,2.12-1.03,5.44-2.99c3.25-1.91,7.54-4.54,11.68-7.07c4.04-2.47,8.22-5.02,11.42-6.92
		c1.88-1.11,3.16-1.84,4.04-2.32c-0.87,0.65-2.21,1.61-4.27,3.02c-3.34,2.29-7.78,5.23-12.07,8.08c-4.5,2.98-9.15,6.07-12.55,8.41
		c-1.83,1.26-3.17,2.21-4.08,2.9c-0.12,0.09-0.23,0.18-0.34,0.26C1.8,23.59,2.05,22.46,2.36,21.35z M35.29,1.04
		c-0.87,0.45-2.26,1.22-4.51,2.55c-3.25,1.91-7.54,4.54-11.68,7.07c-4.04,2.47-8.22,5.02-11.42,6.92c-1.89,1.12-3.18,1.85-4.07,2.33
		c0.68-0.52,1.65-1.24,3.04-2.24c2.61-1.87,6.07-4.28,9.42-6.61c3.52-2.45,7.17-4.99,9.83-6.91c1.44-1.04,2.48-1.82,3.2-2.38
		c0.57-0.45,0.93-0.76,1.11-1C31.9,0.74,33.61,0.83,35.29,1.04z M28.05,0.85c-0.62,0.34-1.44,0.81-2.55,1.46
		c-2.38,1.4-5.52,3.32-8.55,5.18c-3.96,2.42-8.64,5.28-11.06,6.62c1.35-1.22,3.55-3.11,5.44-4.74c1.7-1.46,3.45-2.97,4.74-4.11
		c0.69-0.62,1.2-1.08,1.54-1.41c0.26-0.25,0.46-0.45,0.57-0.64c0.07-0.03,0.15-0.06,0.22-0.1C21.46,1.82,24.74,1.08,28.05,0.85z
		 M9.7,9c0.92-0.91,1.89-1.76,2.92-2.54c0.35-0.17,1.05-0.59,2.65-1.57c0.1-0.06,0.2-0.12,0.3-0.19c-1.34,1.19-3.14,2.74-4.73,4.11
		c-1.35,1.16-2.74,2.35-3.89,3.36C7.79,11.05,8.71,9.99,9.7,9z M3.81,17.44c0.3-0.66,0.64-1.32,0.99-1.96
		c0.53-0.22,1.6-0.79,3.97-2.18c2.38-1.4,5.52-3.32,8.55-5.18c3.65-2.23,7.92-4.84,10.46-6.28c-0.66,0.5-1.54,1.14-2.72,1.99
		c-2.61,1.87-6.07,4.28-9.42,6.61c-3.52,2.45-7.17,4.99-9.83,6.91c-1.22,0.88-2.15,1.57-2.85,2.11C3.23,18.78,3.51,18.1,3.81,17.44z
		 M2.76,27.19c-0.44,0-0.88,0-1.32,0c0.01-0.29,0.02-0.58,0.04-0.88c0.78-0.32,2.47-1.2,6.43-3.53c3.84-2.26,8.91-5.36,13.81-8.36
		c4.79-2.93,9.75-5.96,13.54-8.2c2.63-1.55,4.27-2.47,5.3-3.01c-0.87,0.65-2.27,1.66-4.51,3.19c-3.37,2.31-7.85,5.27-12.19,8.14
		c-4.54,3.01-9.24,6.12-12.67,8.47c-1.85,1.27-3.2,2.23-4.12,2.92c-0.51,0.39-0.88,0.69-1.13,0.92c-0.1,0.09-0.22,0.2-0.31,0.33
		C4.67,27.19,3.71,27.19,2.76,27.19z M10.46,27.19c-1,0-2.01,0-3.01,0c0.86-0.5,2.2-1.31,4.35-2.62c1.43-0.88,3.08-1.88,4.22-2.55
		c-0.4,0.71-0.75,1.46-1.02,2.23c-0.45,0.74-0.9,1.48-1.23,2.05c-0.25,0.42-0.41,0.7-0.5,0.89C12.33,27.19,11.39,27.19,10.46,27.19z
		 M27.6,14.06c0.14-0.08,0.29-0.17,0.45-0.27c1.93-1.14,4.47-2.69,6.93-4.2c3.07-1.88,6.68-4.08,8.7-5.22
		c-1.13,1.09-2.88,2.7-4.39,4.09c-1.41,1.3-2.88,2.65-3.95,3.67c-0.58,0.55-1,0.96-1.29,1.26c-0.14,0.14-0.26,0.27-0.35,0.38
		c-0.52-0.04-1.04-0.06-1.56-0.07C30.62,13.69,29.1,13.8,27.6,14.06z M35.33,13.96c0.34-0.19,0.76-0.43,1.29-0.75
		c1.41-0.83,3.27-1.97,5.07-3.07c2.04-1.25,4.41-2.7,5.93-3.57c-0.97,1-2.4,2.4-3.65,3.62c-1.22,1.2-2.48,2.44-3.4,3.37
		c-0.5,0.51-0.86,0.89-1.11,1.16c-0.06,0.07-0.11,0.13-0.17,0.19c-0.73-0.26-1.48-0.48-2.23-0.65
		C36.49,14.14,35.91,14.04,35.33,13.96z M44.11,17.69c0.8-0.44,2.29-1.33,5.19-3.1c1.44-0.88,3.08-1.88,4.26-2.57
		c-0.93,0.96-2.25,2.29-3.41,3.45c-1.17,1.17-2.37,2.38-3.25,3.29c-0.39,0.4-0.69,0.72-0.91,0.97c-0.3-0.4-0.62-0.79-0.96-1.15
		C44.74,18.26,44.43,17.96,44.11,17.69z M46.62,20.65c0.76-0.41,2.19-1.27,5.09-3.04c1.33-0.81,2.85-1.74,3.97-2.4
		c-0.99,1-2.4,2.37-3.64,3.58c-1.25,1.21-2.53,2.46-3.47,3.41c-0.33,0.33-0.6,0.61-0.82,0.84C47.46,22.2,47.08,21.4,46.62,20.65z
		 M38.27,40.21c2.62-1.69,5.37-3.38,7.48-5.7c0.07-0.08,0.14-0.15,0.21-0.23c0.36-0.16,1.02-0.52,2.31-1.28
		c1.42-0.84,3.29-1.98,5.1-3.09c1.46-0.89,3.08-1.88,4.45-2.7c-0.74,0.53-1.68,1.19-2.87,2.02c-3.18,2.19-7.39,5.02-11.47,7.75
		c-4.28,2.87-8.71,5.83-11.94,8.07c-0.26,0.18-0.51,0.36-0.75,0.52C33.1,43.55,35.69,41.88,38.27,40.21z M26.98,49.7
		c0.59-0.22,1.96-0.91,5.46-2.98c3.17-1.87,7.36-4.43,11.41-6.9c3.94-2.41,8.02-4.9,11.15-6.75c1.78-1.06,3.02-1.76,3.88-2.23
		c-0.9,0.67-2.29,1.66-4.45,3.12c-3.46,2.35-8.05,5.38-12.49,8.31c-4.65,3.07-9.47,6.24-12.98,8.65c-1.9,1.3-3.28,2.27-4.22,2.98
		c-0.01,0-0.01,0.01-0.02,0.01c0.02-0.04,0.03-0.08,0.05-0.13C25.33,52.33,26.08,50.96,26.98,49.7z M25.4,63.85
		c0.94-0.54,2.46-1.46,4.97-2.99c1.65-1.01,3.55-2.17,4.83-2.91c-0.14,0.26-0.25,0.53-0.36,0.81c-0.37,0.51-0.77,1.06-1.14,1.57
		c-0.64,0.88-1.31,1.8-1.79,2.48c-0.35,0.5-0.58,0.82-0.7,1.04c-0.08,0-0.17,0-0.25,0C29.1,63.85,27.25,63.85,25.4,63.85z
		 M34.19,62.18c-0.27,0.16-0.66,0.39-1.22,0.74c-0.13,0.08-0.27,0.17-0.42,0.25c0.5-0.7,1.16-1.61,1.74-2.41
		c0.02-0.03,0.04-0.05,0.06-0.08C34.28,61.18,34.23,61.68,34.19,62.18z M32.86,63.85c0.15-0.09,0.31-0.19,0.5-0.3
		c0.24-0.15,0.52-0.32,0.78-0.48c-0.01,0.26-0.02,0.52-0.03,0.78C33.7,63.85,33.28,63.85,32.86,63.85z M38.22,54.59
		c-0.76,0.61-1.51,1.27-2.13,2.02c-0.65,0.3-2.14,1.19-6.11,3.61c-0.95,0.58-1.99,1.21-2.94,1.79c0.64-0.46,1.43-1.02,2.38-1.68
		c3.03-2.11,7.05-4.83,10.94-7.46c4.09-2.76,8.31-5.61,11.4-7.77c0.36-0.25,0.7-0.49,1.02-0.72c-1.92,1.81-4.08,3.34-6.31,4.76
		C43.7,50.93,40.79,52.53,38.22,54.59z M57.42,38.48c-0.4,0.73-0.85,1.43-1.33,2.11c-0.58,0.2-1.91,0.89-5.42,2.95
		c-3.13,1.85-7.28,4.38-11.28,6.83c-3.9,2.38-7.93,4.84-11.02,6.67c-1.74,1.03-2.96,1.72-3.8,2.18c0.9-0.67,2.28-1.65,4.41-3.1
		c3.44-2.34,8.01-5.36,12.44-8.28c4.63-3.06,9.42-6.22,12.92-8.61c1.84-1.26,3.19-2.22,4.13-2.92
		C58.16,37.06,57.81,37.78,57.42,38.48z"/>
	<path class="st0" d="M35.53,86.25c0-0.3,0-0.6,0-0.89c0-0.44,0-0.88,0-1.33c0-0.54,0-1.07,0-1.61c0-0.59,0-1.18,0-1.77
		c0-0.59,0-1.19,0-1.78c0-0.55,0-1.11,0-1.66c0-0.47,0-0.94,0-1.41c0-0.34,0-0.68,0-1.01c0-0.16,0.01-0.32,0-0.48
		c0-0.01,0-0.01,0-0.02c0-0.09-0.22-0.12-0.26-0.12c-0.11,0-0.22,0-0.33,0c-0.3,0-0.6,0-0.89,0c-0.44,0-0.88,0-1.33,0
		c-0.54,0-1.07,0-1.61,0c-0.12,0-0.25,0-0.37,0c-0.04-0.02-0.08-0.04-0.12-0.05c-0.08-0.02-0.14-0.04-0.35,0.05
		c-0.31,0-0.62,0-0.93,0c-0.59,0-1.19,0-1.78,0c-0.55,0-1.11,0-1.66,0c-0.47,0-0.94,0-1.41,0c-0.34,0-0.68,0-1.01,0
		c-0.13,0-0.26,0-0.39,0c-0.03-0.02-0.07-0.04-0.11-0.05c-0.12-0.03-0.2-0.01-0.34,0.07c-0.16,0.02-0.31,0.07-0.46,0.13
		c-0.14,0.06-0.38,0.16-0.38,0.34c0,0.11,0,0.22,0,0.33c0,0.3,0,0.6,0,0.89c0,0.44,0,0.88,0,1.33c0,0.54,0,1.07,0,1.61
		c0,0.59,0,1.18,0,1.77c0,0.59,0,1.19,0,1.78c0,0.55,0,1.11,0,1.66c0,0.47,0,0.94,0,1.41c0,0.34,0,0.68,0,1.01
		c0,0.16-0.01,0.32,0,0.48c0,0.01,0,0.01,0,0.02c0,0.09,0.22,0.12,0.26,0.12c0.11,0,0.22,0,0.33,0c0.3,0,0.6,0,0.89,0
		c0.35,0,0.71,0,1.06,0c0.04,0.02,0.08,0.04,0.12,0.06c0.03,0.01,0.06,0.01,0.1,0.01c0.06,0,0.14-0.02,0.27-0.07
		c0.46,0,0.93,0,1.39,0c0.59,0,1.18,0,1.77,0c0.59,0,1.19,0,1.78,0c0.55,0,1.11,0,1.66,0c0.19,0,0.37,0,0.56,0
		c0.03,0.02,0.07,0.04,0.11,0.05c0.09,0.02,0.14,0.04,0.32-0.05c0.14,0,0.28,0,0.42,0c0.34,0,0.68,0,1.01,0c0.16,0,0.32,0,0.48,0
		c0.01,0,0.01,0,0.02,0c0.17,0.01,0.36-0.02,0.53-0.06c0.07-0.02,0.15-0.04,0.23-0.07c0.09-0.03,0.18-0.08,0.25-0.13
		c0.06-0.04,0.2-0.14,0.16-0.23C35.53,86.47,35.53,86.36,35.53,86.25z M32.93,85.93c0.26-0.57,0.6-1.31,0.91-1.97
		c0.09-0.18,0.17-0.37,0.26-0.56c0,0.21,0,0.42,0,0.64c0,0.39,0,0.79,0,1.18c-0.2,0.12-0.45,0.27-0.79,0.48
		C33.2,85.77,33.07,85.85,32.93,85.93z M34.1,80.74c-0.66,0.35-1.95,1.12-4.62,2.75c-1.08,0.66-2.31,1.41-3.28,1.98
		c1.02-1.02,2.46-2.4,3.72-3.61c1.29-1.23,2.62-2.51,3.59-3.47c0.22-0.22,0.41-0.41,0.58-0.58c0,0.34,0,0.68,0,1.01
		c0,0.59,0,1.18,0,1.77C34.1,80.64,34.1,80.69,34.1,80.74z M31.44,74.78c0.47,0,0.94,0,1.41,0c0.34,0,0.68,0,1.01,0
		c0.08,0,0.16,0,0.24,0c0,0.07,0,0.14,0,0.21c0,0.3,0,0.6,0,0.89c0,0.14,0,0.28,0,0.42c-0.74,0.39-2.26,1.29-5.63,3.35
		c-1.57,0.96-3.38,2.07-4.61,2.78c0.8-0.89,1.94-2.12,2.93-3.19c1.01-1.08,2.05-2.2,2.8-3.04c0.41-0.46,0.71-0.8,0.91-1.05
		c0.12-0.14,0.22-0.27,0.29-0.38C31.02,74.78,31.23,74.78,31.44,74.78z M23.23,80.64c0-0.48,0-0.97,0-1.45
		c0.56-0.31,1.57-0.91,3.49-2.09c0.78-0.48,1.65-1.01,2.38-1.44c-0.79,0.88-1.88,2.05-2.84,3.08c-1.01,1.08-2.05,2.2-2.8,3.04
		c-0.08,0.09-0.15,0.17-0.22,0.25C23.23,81.57,23.23,81.11,23.23,80.64z M24.61,74.78c0.54,0,1.07,0,1.61,0c0.59,0,1.18,0,1.77,0
		c0.38,0,0.76,0,1.15,0c-0.61,0.36-1.49,0.89-2.8,1.69c-1.07,0.65-2.31,1.41-3.11,1.87c0-0.38,0-0.76,0-1.14c0-0.47,0-0.94,0-1.41
		c0-0.24,0-0.48,0-0.71c0.01-0.12,0.02-0.22,0.02-0.3c0.01,0,0.02,0,0.03,0C23.73,74.78,24.17,74.78,24.61,74.78z M23.23,86.46
		c0-0.07,0-0.14,0-0.21c0-0.3,0-0.6,0-0.89c0-0.44,0-0.88,0-1.33c0-0.13,0-0.26,0-0.39c0.74-0.39,2.26-1.29,5.63-3.35
		c1.46-0.89,3.13-1.91,4.34-2.63c-1.02,1.02-2.5,2.43-3.78,3.67c-1.29,1.23-2.62,2.51-3.59,3.47c-0.53,0.52-0.91,0.91-1.17,1.2
		c-0.16,0.18-0.3,0.33-0.39,0.46c-0.27,0-0.54,0-0.8,0C23.4,86.46,23.32,86.46,23.23,86.46z M31.12,86.46c-0.59,0-1.18,0-1.77,0
		c-0.59,0-1.19,0-1.78,0c-0.52,0-1.05,0-1.57,0c0.77-0.45,1.97-1.17,3.88-2.34c1.49-0.91,3.24-1.98,4.23-2.54c0,0.02,0,0.03,0,0.05
		c-0.26,0.57-0.62,1.34-0.93,2.01c-0.33,0.71-0.68,1.45-0.93,2c-0.17,0.38-0.28,0.63-0.35,0.81C31.64,86.46,31.38,86.46,31.12,86.46
		z M33.49,86.46c0.07-0.04,0.14-0.09,0.22-0.13c0.13-0.08,0.26-0.16,0.4-0.25c0,0.13,0,0.25,0,0.38c-0.02,0-0.03,0-0.05,0
		C33.87,86.46,33.68,86.46,33.49,86.46z"/>
</g>
</svg>
